<mxfile host="Electron" modified="2025-10-19T00:00:00.000Z" agent="Mozilla/5.0 (Windows NT 10.0; Win64; x64) AppleWebKit/537.36" etag="abc130" version="24.7.5" type="device">
  <diagram name="시설 시스템 API" id="facility-diagram">
    <mxGraphModel dx="1422" dy="794" grid="1" gridSize="10" guides="1" tooltips="1" connect="1" arrows="1" fold="1" page="1" pageScale="1" pageWidth="1169" pageHeight="827" math="0" shadow="0">
      <root>
        <mxCell id="0"/>
        <mxCell id="1" parent="0"/>
        <mxCell id="title" value="🏢 시설 시스템 API&#xa;(시설 예약 및 관리)" style="text;html=1;strokeColor=none;fillColor=none;align=center;verticalAlign=middle;whiteSpace=wrap;rounded=0;fontSize=24;fontStyle=1" parent="1" vertex="1">
          <mxGeometry x="350" y="20" width="400" height="60" as="geometry"/>
        </mxCell>
        <mxCell id="facilities-list" value="POST /api/facilities/list&#xa;🏢 시설 목록 조회" style="rounded=1;whiteSpace=wrap;html=1;fillColor=#4CAF50;strokeColor=#2E7D32;fontColor=#FFFFFF;fontSize=12;fontStyle=1" parent="1" vertex="1">
          <mxGeometry x="150" y="120" width="180" height="80" as="geometry"/>
        </mxCell>
        <mxCell id="facilities-detail" value="POST /api/facilities/detail/{facilityIdx}&#xa;🔍 시설 상세 정보" style="rounded=1;whiteSpace=wrap;html=1;fillColor=#2196F3;strokeColor=#0D47A1;fontColor=#FFFFFF;fontSize=12;fontStyle=1" parent="1" vertex="1">
          <mxGeometry x="370" y="120" width="180" height="80" as="geometry"/>
        </mxCell>
        <mxCell id="facilities-availability" value="POST /api/facilities/availability&#xa;📅 시설 예약 가능 시간" style="rounded=1;whiteSpace=wrap;html=1;fillColor=#FF9800;strokeColor=#E65100;fontColor=#FFFFFF;fontSize=12;fontStyle=1" parent="1" vertex="1">
          <mxGeometry x="590" y="120" width="180" height="80" as="geometry"/>
        </mxCell>
        <mxCell id="reservations-create" value="POST /api/facility-reservations/create&#xa;📝 시설 예약 신청" style="rounded=1;whiteSpace=wrap;html=1;fillColor=#9C27B0;strokeColor=#4A148C;fontColor=#FFFFFF;fontSize=12;fontStyle=1" parent="1" vertex="1">
          <mxGeometry x="150" y="240" width="180" height="80" as="geometry"/>
        </mxCell>
        <mxCell id="reservations-list" value="POST /api/facility-reservations/list&#xa;📋 내 예약 목록" style="rounded=1;whiteSpace=wrap;html=1;fillColor=#FF5722;strokeColor=#BF360C;fontColor=#FFFFFF;fontSize=12;fontStyle=1" parent="1" vertex="1">
          <mxGeometry x="370" y="240" width="180" height="80" as="geometry"/>
        </mxCell>
        <mxCell id="reservations-cancel" value="POST /api/facility-reservations/cancel/{reservationIdx}&#xa;❌ 예약 취소" style="rounded=1;whiteSpace=wrap;html=1;fillColor=#795548;strokeColor=#3E2723;fontColor=#FFFFFF;fontSize=12;fontStyle=1" parent="1" vertex="1">
          <mxGeometry x="590" y="240" width="180" height="80" as="geometry"/>
        </mxCell>
        <mxCell id="reservations-admin-list" value="POST /api/facility-reservations/admin/list&#xa;👨‍💼 관리자 예약 목록" style="rounded=1;whiteSpace=wrap;html=1;fillColor=#607D8B;strokeColor=#263238;fontColor=#FFFFFF;fontSize=12;fontStyle=1" parent="1" vertex="1">
          <mxGeometry x="150" y="360" width="180" height="80" as="geometry"/>
        </mxCell>
        <mxCell id="reservations-admin-approve" value="POST /api/facility-reservations/admin/approve/{reservationIdx}&#xa;✅ 예약 승인" style="rounded=1;whiteSpace=wrap;html=1;fillColor=#00BCD4;strokeColor=#006064;fontColor=#FFFFFF;fontSize=12;fontStyle=1" parent="1" vertex="1">
          <mxGeometry x="370" y="360" width="180" height="80" as="geometry"/>
        </mxCell>
        <mxCell id="reservations-admin-reject" value="POST /api/facility-reservations/admin/reject/{reservationIdx}&#xa;❌ 예약 거부" style="rounded=1;whiteSpace=wrap;html=1;fillColor=#8BC34A;strokeColor=#33691E;fontColor=#FFFFFF;fontSize=12;fontStyle=1" parent="1" vertex="1">
          <mxGeometry x="590" y="360" width="180" height="80" as="geometry"/>
        </mxCell>
        <mxCell id="facility-types" value="🏢 시설 유형&#xa;• 강의실&#xa;• 세미나실&#xa;• 체육관&#xa;• 도서관&#xa;• 연구실" style="text;html=1;strokeColor=#2196F3;fillColor=#E3F2FD;align=left;verticalAlign=top;whiteSpace=wrap;rounded=1;fontSize=12" parent="1" vertex="1">
          <mxGeometry x="100" y="120" width="150" height="120" as="geometry"/>
        </mxCell>
        <mxCell id="reservation-status" value="📊 예약 상태&#xa;• 0: 대기&#xa;• 1: 승인&#xa;• 2: 거부&#xa;• 3: 취소&#xa;• 4: 완료" style="text;html=1;strokeColor=#FF9800;fillColor=#FFF3E0;align=left;verticalAlign=top;whiteSpace=wrap;rounded=1;fontSize=12" parent="1" vertex="1">
          <mxGeometry x="820" y="120" width="150" height="120" as="geometry"/>
        </mxCell>
        <mxCell id="time-slots" value="⏰ 시간대 설정&#xa;• 30분 단위&#xa;• 최대 4시간&#xa;• 중복 예약 불가" style="text;html=1;strokeColor=#4CAF50;fillColor=#E8F5E8;align=left;verticalAlign=top;whiteSpace=wrap;rounded=1;fontSize=12" parent="1" vertex="1">
          <mxGeometry x="820" y="260" width="150" height="100" as="geometry"/>
        </mxCell>
        <mxCell id="flow1" value="" style="endArrow=classic;html=1;rounded=0;exitX=0.5;exitY=1;entryX=0.5;entryY=0" parent="1" source="facilities-list" target="facilities-detail" edge="1">
          <mxGeometry width="50" height="50" relative="1" as="geometry">
            <mxPoint x="-20" y="30" as="sourcePoint"/>
            <mxPoint x="30" y="-20" as="targetPoint"/>
          </mxGeometry>
        </mxCell>
        <mxCell id="flow2" value="" style="endArrow=classic;html=1;rounded=0;exitX=0.5;exitY=1;entryX=0.5;entryY=0" parent="1" source="facilities-detail" target="facilities-availability" edge="1">
          <mxGeometry width="50" height="50" relative="1" as="geometry">
            <mxPoint x="-20" y="30" as="sourcePoint"/>
            <mxPoint x="30" y="-20" as="targetPoint"/>
          </mxGeometry>
        </mxCell>
        <mxCell id="flow3" value="" style="endArrow=classic;html=1;rounded=0;exitX=0.5;exitY=1;entryX=0.5;entryY=0" parent="1" source="facilities-availability" target="reservations-create" edge="1">
          <mxGeometry width="50" height="50" relative="1" as="geometry">
            <mxPoint x="-20" y="30" as="sourcePoint"/>
            <mxPoint x="30" y="-20" as="targetPoint"/>
          </mxGeometry>
        </mxCell>
        <mxCell id="flow4" value="" style="endArrow=classic;html=1;rounded=0;exitX=0.5;exitY=1;entryX=0.5;entryY=0" parent="1" source="reservations-create" target="reservations-list" edge="1">
          <mxGeometry width="50" height="50" relative="1" as="geometry">
            <mxPoint x="-20" y="30" as="sourcePoint"/>
            <mxPoint x="30" y="-20" as="targetPoint"/>
          </mxGeometry>
        </mxCell>
        <mxCell id="flow5" value="" style="endArrow=classic;html=1;rounded=0;exitX=0.5;exitY=1;entryX=0.5;entryY=0" parent="1" source="reservations-list" target="reservations-cancel" edge="1">
          <mxGeometry width="50" height="50" relative="1" as="geometry">
            <mxPoint x="-20" y="30" as="sourcePoint"/>
            <mxPoint x="30" y="-20" as="targetPoint"/>
          </mxGeometry>
        </mxCell>
        <mxCell id="flow6" value="" style="endArrow=classic;html=1;rounded=0;exitX=0.5;exitY=1;entryX=0.5;entryY=0" parent="1" source="reservations-create" target="reservations-admin-list" edge="1">
          <mxGeometry width="50" height="50" relative="1" as="geometry">
            <mxPoint x="-20" y="30" as="sourcePoint"/>
            <mxPoint x="30" y="-20" as="targetPoint"/>
          </mxGeometry>
        </mxCell>
        <mxCell id="flow7" value="" style="endArrow=classic;html=1;rounded=0;exitX=0.5;exitY=1;entryX=0.5;entryY=0" parent="1" source="reservations-admin-list" target="reservations-admin-approve" edge="1">
          <mxGeometry width="50" height="50" relative="1" as="geometry">
            <mxPoint x="-20" y="30" as="sourcePoint"/>
            <mxPoint x="30" y="-20" as="targetPoint"/>
          </mxGeometry>
        </mxCell>
        <mxCell id="flow8" value="" style="endArrow=classic;html=1;rounded=0;exitX=0.5;exitY=1;entryX=0.5;entryY=0" parent="1" source="reservations-admin-list" target="reservations-admin-reject" edge="1">
          <mxGeometry width="50" height="50" relative="1" as="geometry">
            <mxPoint x="-20" y="30" as="sourcePoint"/>
            <mxPoint x="30" y="-20" as="targetPoint"/>
          </mxGeometry>
        </mxCell>
        <mxCell id="legend" value="🎨 범례&#xa;🟢 POST - 목록&#xa;🔵 POST - 상세&#xa;🟠 POST - 가능시간&#xa;🟣 POST - 신청&#xa;🟡 POST - 내예약&#xa;🟤 POST - 취소&#xa;🔵 POST - 관리자목록&#xa;🟢 POST - 승인&#xa;🟡 POST - 거부" style="text;html=1;strokeColor=none;fillColor=#F5F5F5;align=left;verticalAlign=top;whiteSpace=wrap;rounded=1;fontSize=10" parent="1" vertex="1">
          <mxGeometry x="100" y="500" width="200" height="160" as="geometry"/>
        </mxCell>
      </root>
    </mxGraphModel>
  </diagram>
</mxfile>